<?xml version="1.0" standalone="no"?>
<!DOCTYPE svg PUBLIC "-//W3C//DTD SVG 1.1//EN" "http://www.w3.org/Graphics/SVG/1.1/DTD/svg11.dtd" >
<svg xmlns="http://www.w3.org/2000/svg">
<metadata></metadata>
<defs>
<font id="virtus_sans_boldbold" horiz-adv-x="1235" >
<font-face units-per-em="2048" ascent="1638" descent="-410" />
<missing-glyph horiz-adv-x="508" />
<glyph horiz-adv-x="0" />
<glyph unicode="&#xd;" horiz-adv-x="508" />
<glyph unicode=" "  horiz-adv-x="508" />
<glyph unicode="&#x09;" horiz-adv-x="508" />
<glyph unicode="&#xa0;" horiz-adv-x="508" />
<glyph unicode="!" horiz-adv-x="489" d="M123 -1v277h232v-277h-232zM123 428v1066h232v-1066h-232z" />
<glyph unicode="&#x22;" horiz-adv-x="819" d="M90 1357v247h154h113v-279q-2 -105 -54 -151t-125 -52h-87v153q66 18 62 82h-63zM463 1357v247h154h113v-279q-2 -105 -54 -151.5t-125 -51.5h-87v153q66 18 62 82h-63z" />
<glyph unicode="#" horiz-adv-x="1567" d="M187 343v231h236l82 332h-222v232h279l85 350h239l-84 -350h208l85 350h243l-88 -350h146v-232h-202l-82 -332h189v-231h-246l-86 -344h-237l83 344h-208l-84 -348l-246 -1l89 349h-179zM670 570h205l80 329h-204z" />
<glyph unicode="$" horiz-adv-x="1428" d="M153 286l182 139q147 -187 276 -188v418q-128 29 -240 96q-205 127 -191 344q7 145 125 257q135 127 306 138v107h232v-109q106 -7 214.5 -86t169.5 -190l-184 -128q-101 154 -200 175v-421q179 -61 283.5 -170.5t103.5 -274.5q-5 -158 -140 -271q-129 -110 -247 -116 v-114h-232v110q-248 13 -458 284zM411 1082q-5 -79 72 -130q75 -49 128 -62v370q-77 0 -137 -51t-63 -127zM843 235q159 46 161 182q-12 127 -161 186v-368z" />
<glyph unicode="%" horiz-adv-x="1744" d="M175 9l1129 1487h291l-1131 -1487h-289zM309 1123q0 117 81 198q85 83 204 83q117 0 200 -83q85 -80 85 -198q0 -115 -85 -198q-83 -81 -200 -81t-203 81q-82 83 -82 198zM486 1124q0 -45 33 -76q31 -32 76 -32q44 0 76 32q31 31 31 76t-30 75q-33 33 -77 33 q-45 0 -76 -33q-33 -30 -33 -75zM888 391q0 116 83 198q85 83 202 83q119 0 203 -84q82 -81 82 -197q0 -115 -82 -198q-84 -82 -203 -82q-117 0 -202 82q-83 82 -83 198zM1066 392q0 -45 31 -76q33 -32 77 -32q45 0 76 32q31 31 31 76q0 44 -31 76q-31 31 -76 31 q-44 0 -77 -32q-31 -31 -31 -75z" />
<glyph unicode="&#x26;" horiz-adv-x="1553" d="M177 467q7 271 212 409q-104 110 -110 260q2 168 110 265q105 95 282 95q178 0 288 -114q98 -104 89 -246q-8 -141 -108 -227q-55 -45 -180 -99l275 -289l49 202l220 -38q-29 -162 -99 -349l170 -180l-174 -154l-127 135q-139 -152 -422 -138q-198 9 -349 149 q-126 135 -126 319zM410 466q0 -93 65 -163q71 -68 177 -73q180 -6 261 78l-371 397q-132 -74 -132 -239zM514 1136q16 -81 81 -147q62 23 113.5 48t79.5 48q25 20 28 66q3 42 -27 72q-39 42 -118 42q-86 0 -124 -34q-33 -29 -33 -95z" />
<glyph unicode="'" horiz-adv-x="455" d="M90 1357v247h154h113v-279q-2 -105 -54 -151t-125 -52h-87v153q66 18 62 82h-63z" />
<glyph unicode="(" horiz-adv-x="975" d="M170 755q0 293 115 516q118 233 403 366l99 -205q-215 -102 -298 -266q-87 -173 -87 -411q0 -248 87 -421q84 -164 300 -264l-97 -209q-288 134 -407 366q-115 224 -115 528z" />
<glyph unicode=")" horiz-adv-x="981" d="M180 68q218 102 302 266q87 173 87 421q0 238 -86 411q-84 164 -301 266l104 205q284 -133 402 -366q113 -223 113 -516q0 -304 -114 -528q-120 -232 -403 -364z" />
<glyph unicode="*" horiz-adv-x="1014" d="M147 1220l127 85l-127 74l113 203l124 -73v131h236v-131l122 83l115 -202l-128 -85l128 -85l-116 -201l-121 82v-131h-236v131l-124 -82z" />
<glyph unicode="+" horiz-adv-x="1319" d="M177 618v232h354v346h237v-346h353v-232h-353v-348h-237v348h-354z" />
<glyph unicode="," horiz-adv-x="435" d="M110 2v247h154h113v-279q-2 -105 -54 -151t-125 -52h-87v153q66 18 62 82h-63z" />
<glyph unicode="-" horiz-adv-x="966" d="M156 478v231h612v-231h-612z" />
<glyph unicode="." horiz-adv-x="485" d="M102 4v293h274v-293h-274z" />
<glyph unicode="/" horiz-adv-x="1086" d="M113 -100l612 1667h247l-611 -1667h-248z" />
<glyph unicode="0" horiz-adv-x="1640" d="M166 745q0 304 187 522q193 223 470 223q275 0 467 -223q187 -218 187 -522q0 -305 -187 -521q-192 -225 -467 -225q-277 0 -470 225q-187 216 -187 521zM398 745q0 -220 130 -372q123 -145 295 -145q169 0 293 145q130 152 130 372q0 219 -130 371q-124 147 -293 147 q-172 0 -295 -146q-130 -153 -130 -372z" />
<glyph unicode="1" horiz-adv-x="810" d="M54 1165l124 329l453 -2v-1493h-233v1266h-58l-68 -178z" />
<glyph unicode="2" horiz-adv-x="1307" d="M178 958q0 306 166 429q138 103 330 103q180 0 310 -91q160 -112 160 -308q0 -135 -98 -239l-558 -594l-29 -31h688v-228h-963v276l693 732q35 38 35 84q0 79 -66 124q-68 48 -172 48q-113 0 -191 -58q-74 -56 -74 -247h-231z" />
<glyph unicode="3" horiz-adv-x="1419" d="M171 540h232q0 -196 85 -254q87 -58 216 -58q141 0 234 66q90 65 90 175q0 101 -46 146q-73 75 -292 75h-111v161l363 413l-53 -1h-680v227h984v-293l-255 -289q101 -3 228 -153q93 -107 93 -286q0 -230 -186 -362q-155 -108 -369 -108q-205 0 -352 101 q-181 126 -181 440z" />
<glyph unicode="4" horiz-adv-x="1400" d="M175 396v297l572 752l34 45h315v-865h145v-229h-145v-397h-233v397h-688zM416 625h447v588l-18 -21z" />
<glyph unicode="5" horiz-adv-x="1446" d="M181 537h232q0 -190 85 -248q89 -61 225 -61q138 0 229 69q91 68 91 194q0 108 -39 164q-72 107 -301 107h-470l138 732h750v-229h-558l-53 -274h221q543 -14 543 -500q0 -237 -182 -375q-152 -117 -369 -117q-210 0 -362 105q-180 126 -180 433z" />
<glyph unicode="6" horiz-adv-x="1479" d="M248 467q-53 453 117 766q120 184 317 239q171 49 335 -7q167 -55 268 -263l-187 -100q-82 124 -159 148q-96 32 -193 3q-91 -26 -156 -103q-87 -110 -91 -174q-5 -5 19 12q110 59 248 62q221 4 380 -146q161 -149 166 -368q4 -217 -149 -375q-153 -157 -373 -162 q-209 -4 -364 133q-145 140 -178 335zM471 524q0 -122 88 -209q89 -88 214 -88t213 88q90 87 90 209q0 123 -89 210q-89 88 -214 88t-214 -88q-88 -86 -88 -210z" />
<glyph unicode="7" horiz-adv-x="1318" d="M187 1263v228h954v-249l-639 -1241l-263 -5l631 1221l24 46h-707z" />
<glyph unicode="8" horiz-adv-x="1369" d="M168 474q0 155 100 270q55 58 123 105q-47 35 -80 97q-40 76 -44 161q0 161 125 275q122 108 291 108q170 0 291 -109q124 -113 124 -274q5 -88 -39 -169q-40 -71 -75 -89q62 -39 114 -96q99 -123 99 -279q0 -199 -153 -339q-150 -136 -361 -136q-209 0 -362 136 q-153 140 -153 339zM400 474q0 -100 78 -171q85 -75 205 -75q121 0 204 74q80 72 80 172q0 99 -80 171q-83 74 -204 74q-120 0 -205 -74q-78 -72 -78 -171zM498 1107q0 -63 51 -108q55 -50 134 -50q78 0 134 50q51 45 51 108q0 60 -51 106q-55 50 -134 50t-134 -49 q-51 -47 -51 -107z" />
<glyph unicode="9" horiz-adv-x="1459" d="M236 958q-4 217 149 375q153 157 373 162q209 4 364 -133q145 -140 178 -335q53 -453 -117 -766q-120 -184 -317 -239q-171 -49 -335 7q-167 55 -268 263l187 100q82 -124 159 -148q96 -32 193 -3q91 26 156 103q87 110 91 174q5 5 -19 -12q-110 -59 -248 -62 q-221 -4 -380 146q-161 149 -166 368zM472 970q0 -123 89 -210q89 -88 214 -88t214 88q88 86 88 210q0 122 -88 209q-89 88 -214 88t-213 -88q-90 -87 -90 -209z" />
<glyph unicode=":" horiz-adv-x="487" d="M104 4v293h262v-293h-262zM104 633v293h262v-293h-262z" />
<glyph unicode=";" horiz-adv-x="489" d="M101 633v293h265v-293h-265zM102 2v247h154h113v-279q-2 -105 -54 -151t-125 -52h-87v153q66 18 62 82h-63z" />
<glyph unicode="&#x3c;" horiz-adv-x="889" d="M127 624v245l627 265v-254l-317 -134l317 -137v-254z" />
<glyph unicode="=" horiz-adv-x="1232" d="M148 410v231h944v-231h-944zM148 818v228h944v-228h-944z" />
<glyph unicode="&#x3e;" horiz-adv-x="870" d="M127 355v254l317 137l-317 134v254l627 -265v-245z" />
<glyph unicode="?" horiz-adv-x="1265" d="M168 1145q104 206 218 276q114 69 251 69q195 0 332 -135q140 -135 140 -328q0 -183 -125 -318q-126 -135 -215 -140v-174h-231v396h116q89 0 155 69q70 71 70 167t-71 165q-72 71 -171 71q-70 0 -130 -36q-57 -36 -131 -183zM540 -1v277h232v-277h-232z" />
<glyph unicode="@" horiz-adv-x="1814" d="M187 493q0 293 211 502t510 209q324 0 527 -224q185 -200 161 -473q-4 -123 -61 -225q-85 -145 -243 -145q-85 0 -150 55l-19 15q-32 -30 -88 -66q-98 -52 -203 -52q-161 0 -271 117q-117 123 -107 297q8 169 127 289q121 119 286 119q161 0 270 -116q13 -12 17 -2l17 73 l137 -23l-65 -360q-3 -40 -14 -80l-4 -30q-11 -53 10 -80q15 -17 57 -17q96 0 139 107q26 64 28 131q18 217 -125 372q-164 179 -426 179q-242 0 -413 -168q-169 -168 -169 -404q0 -239 153 -392q154 -154 392 -154q203 0 401 117l70 -119q-231 -136 -471 -136 q-295 0 -490 193q-194 195 -194 491zM593 497q-6 -116 70 -195q68 -73 169 -73q92 0 168 62q73 62 97 155l6 39q2 11 2 17q7 117 -69 197q-69 72 -169 72q-107 0 -186 -80q-82 -80 -88 -194z" />
<glyph unicode="A" horiz-adv-x="1623" d="M127 -1l527 1491h281l527 -1491h-245l-156 436h-536l-153 -436h-245zM605 662h375l-183 601z" />
<glyph unicode="B" horiz-adv-x="1549" d="M144 -1v1489h763q172 0 293 -122q119 -122 119 -292v-33q-5 -147 -71 -241q47 -25 101 -114t59 -240v-32q0 -172 -122 -294q-120 -121 -289 -121h-853zM376 228h621q72 0 125 54q54 54 54 132v32q0 83 -56 143q-54 56 -123 56h-621v-417zM376 875h570q54 0 95 45 q48 52 48 121v33q0 77 -54 132q-53 54 -128 54h-531v-385z" />
<glyph unicode="C" horiz-adv-x="1546" d="M118 745q0 309 217 528q218 217 525 217q287 0 570 -257l-156 -170q-217 200 -414 200q-211 0 -361 -151q-149 -152 -149 -367q0 -216 149 -367q150 -150 361 -150q193 0 410 194l156 -170q-284 -253 -566 -253q-307 0 -525 219q-217 217 -217 527z" />
<glyph unicode="D" horiz-adv-x="1526" d="M150 -1v1489h509q394 0 571 -274q117 -184 117 -461q0 -350 -178 -549q-182 -205 -504 -205h-515zM382 228h283q265 0 375 192q76 133 76 333q0 207 -82 335q-109 173 -375 173h-277v-1033z" />
<glyph unicode="E" horiz-adv-x="1469" d="M151 -1v1493h1143v-228h-911v-389h821v-230h-821v-417h911v-229h-1143z" />
<glyph unicode="F" horiz-adv-x="1482" d="M147 -1v1491h1154v-227h-922v-387h778v-229h-778v-648h-232z" />
<glyph unicode="G" horiz-adv-x="1656" d="M157 745q0 309 223 528q223 217 537 217q294 0 546 -231l-157 -168q-183 172 -389 172q-218 0 -374 -152q-154 -152 -154 -366t153 -366q157 -151 375 -151q195 0 302 88v327h-422v228h654v-654l-36 -39q-212 -179 -498 -179q-314 0 -537 218t-223 528z" />
<glyph unicode="H" horiz-adv-x="1483" d="M160 -1v1491h232v-615h697v615h231v-1491h-231v647h-697v-647h-232z" />
<glyph unicode="I" horiz-adv-x="593" d="M191 -1v1489h232v-1489h-232z" />
<glyph unicode="J" horiz-adv-x="1190" d="M149 525h232q0 -180 59 -238q61 -59 147 -59t146 59q61 59 61 142v835h-431v227h664v-1062q0 -178 -130 -304q-128 -126 -310 -126q-181 0 -309 126q-129 126 -129 400z" />
<glyph unicode="K" horiz-adv-x="1615" d="M157 -2v1492h232v-635l726 635h348l-852 -744l851 -747h-348l-676 595l-49 -44v-552h-232z" />
<glyph unicode="L" horiz-adv-x="1371" d="M152 -1v1492h232v-1263h810v-229h-1042z" />
<glyph unicode="M" horiz-adv-x="1698" d="M156 -1v1491h302l379 -627l381 627h302v-1491h-231l1 1175l-335 -564h-235l-333 564l1 -1175h-232z" />
<glyph unicode="N" horiz-adv-x="1526" d="M161 -1v1491h310l628 -1138v1138h230v-1491h-306l-629 1140l-1 -1140h-232z" />
<glyph unicode="O" horiz-adv-x="1831" d="M158 745q0 309 223 528q223 217 537 217q315 0 538 -217q223 -219 223 -528q0 -310 -223 -528q-222 -218 -538 -218q-314 0 -537 218t-223 528zM390 745q0 -214 153 -366q157 -151 375 -151q220 0 376 151q155 153 155 366q0 214 -155 366q-156 152 -376 152 q-218 0 -374 -152q-154 -152 -154 -366z" />
<glyph unicode="P" horiz-adv-x="1527" d="M156 -1v1491h774q172 0 294 -123q123 -122 123 -296v-8q0 -156 -98 -279q-111 -137 -277 -137h-584v-648h-232zM388 876h584q55 0 97 53q46 57 46 134v8q0 80 -55 136q-54 56 -130 56h-542v-387z" />
<glyph unicode="Q" horiz-adv-x="1821" d="M146 745q0 309 223 528q223 217 537 217q315 0 538 -217q223 -219 223 -528q0 -321 -166 -476l131 -127l-171 -156l-134 131q-146 -118 -421 -118q-314 0 -537 218t-223 528zM378 745q0 -214 153 -366q157 -151 375 -151q192 0 256 52l-149 148l162 161l162 -158 q100 91 100 314q0 214 -155 366q-156 152 -376 152q-218 0 -374 -152q-154 -152 -154 -366z" />
<glyph unicode="R" horiz-adv-x="1608" d="M159 -1v1490h776q173 0 294 -119q123 -119 123 -290v-67q0 -164 -107 -282q-91 -97 -178 -125l372 -607h-270l-376 607h-402v-607h-232zM391 835h586q57 0 99 52q45 55 45 126v67q0 74 -55 126q-54 55 -131 55h-544v-426z" />
<glyph unicode="S" horiz-adv-x="1451" d="M144 283l179 147q162 -188 359 -199q30 -2 57 -2q174 0 267 71q65 51 69 107v10q0 79 -78 130q-78 49 -244 83q-236 48 -354 108q-234 121 -234 353q0 13 1 27q9 159 159 274q157 118 415 118q33 0 67 -2q281 -15 477 -269l-185 -139q-132 169 -307 179q-28 2 -54 2 q-178 0 -272 -72q-64 -48 -67 -106q0 -6 -1 -11q0 -88 91 -138q95 -55 311 -99q189 -38 296 -100q214 -122 213 -340v-24q-11 -160 -160 -274q-156 -118 -414 -118q-32 0 -67 2q-295 16 -524 282z" />
<glyph unicode="T" horiz-adv-x="1442" d="M134 1261v227h1179v-227h-474v-1262h-232v1262h-473z" />
<glyph unicode="U" horiz-adv-x="1491" d="M163 511v979h232v-979q0 -115 53 -183q78 -100 275 -100h28q178 0 265 73q81 70 81 210v979h232v-979q0 -196 -104 -326q-150 -186 -474 -186h-28q-257 0 -408 133q-152 138 -152 379z" />
<glyph unicode="V" horiz-adv-x="1534" d="M162 1489h244l389 -1206l376 1209l244 -5l-465 -1488h-308z" />
<glyph unicode="W" horiz-adv-x="1834" d="M110 1490h235l203 -1183l232 585h271l239 -603l194 1200h235l-253 -1490h-307l-243 628l-246 -628h-306z" />
<glyph unicode="X" horiz-adv-x="1575" d="M108 -1l531 746l-531 744h282l392 -547l391 547h282l-533 -744l533 -746h-282l-391 547l-392 -547h-282z" />
<glyph unicode="Y" horiz-adv-x="1586" d="M101 1490h283l396 -552l396 552h282l-563 -787v-704h-231v704z" />
<glyph unicode="Z" horiz-adv-x="1406" d="M110 1261v228h1153v-275l-877 -985l868 -1v-229h-1141v275l876 987h-879z" />
<glyph unicode="[" horiz-adv-x="755" d="M162 -11h155v1515h-155v227h384v-1971h-384v229z" />
<glyph unicode="\" horiz-adv-x="1066" d="M103 1567h248l611 -1667h-247z" />
<glyph unicode="]" horiz-adv-x="749" d="M162 -240v1971h384v-227h-154v-1515h154v-229h-384z" />
<glyph unicode="^" horiz-adv-x="1026" d="M148 1054l268 434h230l273 -434h-274l-111 179l-113 -179h-273z" />
<glyph unicode="_" horiz-adv-x="1148" d="M95 116h944v-233h-944v233z" />
<glyph unicode="`" horiz-adv-x="727" d="M109 1405l145 168l392 -337l-147 -168z" />
<glyph unicode="a" d="M137 393q0 175 154 278q135 92 351 92q134 0 239 -40q0 59 -49 103q-37 35 -98 50q-48 12 -99 12q-53 0 -110 -13q-86 -22 -159 -119l-191 112q122 179 296 226q84 23 168 23q76 0 151 -19q149 -37 235 -141q87 -107 87 -256v-690h-231v62q-87 -74 -257 -74 q-195 0 -335 107q-152 116 -152 287zM369 393q0 -60 64 -108q78 -57 191 -57q114 0 192 57q65 48 65 108v103q-79 38 -239 38q-124 0 -204 -41q-69 -37 -69 -100z" />
<glyph unicode="b" horiz-adv-x="1427" d="M138 1v1504h232v-494l6 4q149 105 335 105q238 0 405 -164q168 -165 168 -398t-168 -399q-167 -163 -405 -163q-198 0 -341 109v-104h-232zM370 558q0 -137 100 -235q100 -99 241 -99t241 99q102 98 102 235q0 136 -102 234q-100 99 -241 99t-241 -99q-100 -96 -100 -234 z" />
<glyph unicode="c" horiz-adv-x="1213" d="M119 559q0 232 175 395q174 163 418 163q171 0 399 -134l-121 -195q-171 101 -278 101q-151 0 -258 -99q-103 -97 -103 -231q0 -136 103 -232q107 -99 258 -99q108 0 281 103l118 -194q-225 -138 -399 -138q-244 0 -418 162q-175 165 -175 398z" />
<glyph unicode="d" horiz-adv-x="1421" d="M138 558q0 233 168 398q167 164 405 164q186 0 335 -105l6 -4v494h232v-1504h-232v104q-143 -109 -341 -109q-238 0 -405 163q-168 166 -168 399zM368 558q0 -137 102 -235q100 -99 241 -99t241 99q100 98 100 235q0 138 -100 234q-100 99 -241 99t-241 -99 q-102 -98 -102 -234z" />
<glyph unicode="e" horiz-adv-x="1316" d="M115 559q0 230 159 392q159 167 384 167q240 0 393 -158q151 -158 151 -401v-114h-829q83 -201 305 -217q164 0 306 156l175 -148q-211 -237 -501 -237q-225 0 -384 166q-159 164 -159 394zM351 672h617q-68 211 -310 227q-228 -18 -307 -227z" />
<glyph unicode="f" horiz-adv-x="1021" d="M105 889v228h168q10 231 151 333q89 60 212 60q29 0 61 -3q79 -8 233 -64l-81 -213q-128 44 -174 49q-21 2 -38 2q-52 0 -82 -19q-51 -35 -51 -145h334v-228h-334v-890h-231v890h-168z" />
<glyph unicode="g" horiz-adv-x="1418" d="M119 555q0 234 170 398q168 166 405 166q171 0 313 -91l32 -28v102h232l-1 -963v-6q0 -32 -16 -126q-34 -145 -132 -244q-159 -161 -445 -161q-274 0 -503 249l166 155q177 -176 337 -176q187 0 279 93q53 53 82 159q-108 -93 -334 -93h-10q-237 0 -405 165 q-170 165 -170 401zM351 555q0 -140 100 -238q102 -98 243 -98q140 0 239 94q100 94 106 225v32q-6 131 -106 225q-99 94 -239 94q-141 0 -243 -98q-100 -98 -100 -236z" />
<glyph unicode="h" horiz-adv-x="1194" d="M130 -1v1492h232v-409q77 43 196 43q15 0 30 -1h12q208 0 328 -114q126 -116 126 -316v-695h-233v695q0 119 -70 165q-56 36 -151 36h-12q-113 0 -172 -65q-54 -59 -54 -144v-687h-232z" />
<glyph unicode="i" horiz-adv-x="541" d="M156 -1v1119h233v-1119h-233zM156 1202v282h233v-282h-233z" />
<glyph unicode="j" horiz-adv-x="522" d="M-275 -303l85 215q121 -45 171 -51q21 -2 39 -2q53 0 82 19q52 35 52 153v1089h231v-1089q0 -239 -152 -342q-90 -59 -216 -59q-105 0 -292 67zM154 1209v279h231v-279h-231z" />
<glyph unicode="k" horiz-adv-x="1332" d="M130 -1v1491h232v-776l476 405h359l-649 -547l677 -573h-358l-497 421l-8 -7v-414h-232z" />
<glyph unicode="l" horiz-adv-x="519" d="M134 -1v1491h232v-1491h-232z" />
<glyph unicode="m" horiz-adv-x="1882" d="M130 -1v1111h232v-84q57 80 254 94h11h8q189 0 309 -144q104 144 328 144h3h30q208 0 323 -118q111 -112 111 -311v-692h-231v692q0 122 -64 167q-50 33 -139 33h-31q-111 0 -170 -65q-54 -59 -54 -142v-685h-232v692q0 119 -70 164q-55 36 -150 36h-11q-112 0 -172 -66 q-53 -57 -53 -141v-685h-232z" />
<glyph unicode="n" horiz-adv-x="1229" d="M154 -1v1111l229 1l2 -87q86 95 225 95h32q219 0 341 -149q91 -108 91 -279v-692h-232v692q0 118 -71 164q-54 35 -149 35h-12q-111 0 -171 -65q-53 -58 -53 -141v-685h-232z" />
<glyph unicode="o" horiz-adv-x="1351" d="M104 558q0 231 167 394t402 163q236 0 401 -164q168 -162 168 -393q0 -232 -168 -396q-165 -163 -401 -163q-235 0 -402 163q-167 164 -167 396zM336 558q0 -136 99 -233t238 -97t239 97q99 97 99 233q0 135 -99 232q-100 97 -239 97t-238 -97t-99 -232z" />
<glyph unicode="p" horiz-adv-x="1424" d="M158 -391v1504h232v-104q143 109 341 109q238 0 405 -163q168 -166 168 -399t-168 -398q-167 -164 -405 -164q-186 0 -335 105l-6 4v-494h-232zM390 556q0 -138 100 -234q100 -99 241 -99t241 99q102 98 102 234q0 137 -102 235q-100 99 -241 99t-241 -99 q-100 -98 -100 -235z" />
<glyph unicode="q" horiz-adv-x="1456" d="M158 556q0 233 168 399q167 163 405 163q198 0 341 -109v104h232v-1504h-232v494l-6 -4q-149 -105 -335 -105q-238 0 -405 164q-168 165 -168 398zM388 556q0 -136 102 -234q100 -99 241 -99t241 99q100 96 100 234q0 137 -100 235q-100 99 -241 99t-241 -99 q-102 -98 -102 -235z" />
<glyph unicode="r" horiz-adv-x="1117" d="M138 -1v1116h232v-81q101 85 234 85h22q210 0 392 -198l-171 -155q-120 124 -241 124h-12q-111 0 -171 -65q-53 -58 -53 -141v-685h-232z" />
<glyph unicode="s" horiz-adv-x="1154" d="M109 240l179 152q123 -159 252 -173q27 -3 51 -3q109 0 171 51q36 30 36 48q2 13 2 24q0 50 -33 72q-44 32 -167 54q-17 4 -57 11q-167 28 -240 69q-145 78 -145 259v19q8 121 114 211q120 100 310 99q42 0 88 -4q216 -22 377 -240l-190 -129q-97 132 -212 143 q-33 3 -62 3q-108 0 -162 -46q-31 -26 -33 -50q-1 -52 29 -68q38 -21 167 -41q41 -8 61 -12q169 -33 259 -94q128 -92 128 -247q0 -26 -4 -54q-6 -106 -118 -201q-124 -104 -316 -104q-17 0 -34 1q-20 1 -43 3q-226 24 -408 247z" />
<glyph unicode="t" horiz-adv-x="992" d="M94 889v228h167v366h231v-366h332v-228h-332v-489q0 -118 51 -153q30 -20 84 -20q17 0 36 2q47 6 167 52l89 -211q-186 -71 -294 -71q-124 0 -212 60q-152 103 -152 341v489h-167z" />
<glyph unicode="u" horiz-adv-x="1178" d="M134 427v692h232v-692q0 -118 71 -164q54 -35 149 -35h12q111 0 171 66q53 57 53 140v685h232v-1111h-232v-1l1 50q-106 -58 -225 -58h-12q-240 0 -361 149q-91 108 -91 279z" />
<glyph unicode="v" horiz-adv-x="1319" d="M112 1116h250l329 -804l294 803h245l-406 -1116h-255z" />
<glyph unicode="w" horiz-adv-x="1770" d="M119 1117h244l254 -780l162 484h258l177 -481l216 775l240 -1l-312 -1115h-265l-180 493l-167 -493h-262z" />
<glyph unicode="x" horiz-adv-x="1324" d="M130 -1l399 559l-399 557h282l258 -360l258 360h282l-398 -557l398 -559h-282l-258 361l-258 -361h-282z" />
<glyph unicode="y" horiz-adv-x="1344" d="M94 1115h262l391 -754l279 757l246 -1l-439 -1199q-73 -202 -233 -263q-62 -24 -131 -24q-100 0 -270 84l112 207q96 -52 121 -56q21 -4 39 -4q23 0 42 7q63 25 100 128q20 53 26 70z" />
<glyph unicode="z" horiz-adv-x="1264" d="M143 0v245l673 640h-673v227h987v-244l-671 -639h661v-229h-977z" />
<glyph unicode="{" horiz-adv-x="828" d="M104 625v219l200 117v317q0 131 84 211t309 80l2 -221q-126 2 -152 -22q-13 -12 -13 -48v-446l-200 -118v40l200 -115v-440q0 -37 13 -50q11 -10 30 -14q16 -3 122 -8l-2 -222h-99q-126 0 -209 81q-85 79 -85 213v310z" />
<glyph unicode="|" horiz-adv-x="508" d="M139 -92v1686h230v-1686h-230z" />
<glyph unicode="}" horiz-adv-x="836" d="M104 127q105 5 122 8q18 4 30 14q13 13 13 50v440l200 115v-40l-200 118v446q0 36 -13 48q-26 24 -152 22l2 221q226 0 309 -80q84 -80 84 -211v-317l200 -117v-219l-200 -116v-310q0 -134 -85 -212q-83 -82 -210 -82h-98z" />
<glyph unicode="~" horiz-adv-x="1147" d="M94 410v367q99 109 171.5 141t144.5 32q79 0 188 -45t140 -45q25 0 58.5 16t259.5 268v-367q-98 -109 -171.5 -140.5t-146.5 -31.5q-74 0 -183.5 44.5t-144.5 44.5q-25 0 -58 -16.5t-258 -267.5z" />
<glyph unicode="&#xa1;" horiz-adv-x="449" d="M123 -1v1085h232v-1085h-232zM123 1133v361h232v-361h-232z" />
<glyph unicode="&#xa2;" horiz-adv-x="1283" d="M147 556q0 208 147 367q143 153 273 172v127h169h62v-108q112 0 338 -136l-120 -194q-170 101 -218 100l-1 -652q51 0 221 97l121 -193q-228 -138 -342 -138v-109h-230v127q-130 18 -273 173q-147 158 -147 367zM379 556q0 -120 83 -212q86 -92 105 -95v614 q-19 -3 -104 -96q-84 -92 -84 -211z" />
<glyph unicode="&#xa3;" horiz-adv-x="1535" d="M161 238l73 67q47 42 86 116q70 132 44 192h-201v228h114q-67 187 64 409q115 195 377 229q209 28 361 -72q104 -72 208 -277l-206 -105q-128 255 -332 228q-150 -21 -208 -119q-79 -133 -17 -293h428v-228h-341q23 -57 -66 -258q-50 -113 -84 -147l-41 58 q186 89 434 -11q94 -39 189 -3q51 19 148 106l156 -170q-132 -117 -222 -153q-181 -65 -357 6q-104 42 -228 15q-64 -15 -103 -37l-94 -51z" />
<glyph unicode="&#xa5;" horiz-adv-x="1630" d="M152 1490h283l396 -552l396 552h282l-451 -631h208v-228h-320v-35h320v-228h-320v-369h-231v369h-320v228h320v35h-320v228h208z" />
<glyph unicode="&#xa6;" horiz-adv-x="628" d="M191 -91v765h234v-765h-234zM191 787v766h234v-766h-234z" />
<glyph unicode="&#xa7;" horiz-adv-x="1257" d="M163 221l170 153q135 -138 275 -145q152 -9 219 52q26 23 26 40q5 50 -33 72q-51 30 -182 47q-40 6 -42 7q-6 0 -58 9q-153 26 -236 77q-135 83 -135 239q0 111 94 201v1q-79 65 -79 200q1 120 97 207q134 122 391 106q219 -12 399 -211l-178 -147q-111 125 -233 132 q-162 9 -223 -47q-22 -20 -22 -43q-1 -29 36 -46q45 -18 192 -37q26 -3 43 -5q170 -23 253 -65q180 -91 160 -286q-7 -95 -77 -171q35 -40 52 -107t14 -130q-11 -119 -103 -210q-122 -114 -340 -114q-25 0 -49 2q-229 12 -431 219zM419 804q-50 -44 20 -88q63 -34 183 -44 q194 -3 236 69q19 37 -15 67q-57 38 -180 48h-1q-159 15 -243 -52z" />
<glyph unicode="&#xa8;" horiz-adv-x="839" d="M102 1397v268h249v-268h-249zM507 1397v268h248v-268h-248z" />
<glyph unicode="&#xa9;" horiz-adv-x="1761" d="M158 745q0 309 223 528q223 217 537 217q315 0 538 -217q223 -219 223 -528q0 -310 -223 -528q-222 -218 -538 -218q-314 0 -537 218t-223 528zM390 745q0 -214 153 -366q157 -151 375 -151q220 0 376 151q155 153 155 366q0 214 -155 366q-156 152 -376 152 q-218 0 -374 -152q-154 -152 -154 -366zM527 743q0 169 119 290q121 119 291 119q156 0 290 -127l-145 -153q-70 71 -145 71q-83 0 -141 -58q-58 -59 -58 -142q0 -84 58 -142q59 -59 141 -59q73 0 156 83l144 -153q-145 -139 -300 -139q-170 0 -291 120q-119 120 -119 290z " />
<glyph unicode="&#xaa;" horiz-adv-x="843" d="M124 1272q0 89 77 142q69 48 177 44q65 -5 105 -35q1 48 -17 77t-46 38q-45 17 -92 -1q-36 -10 -66 -64l-118 64q58 102 146 128q82 23 162 2q75 -19 121 -73q42 -55 42 -131v-392h-122v38q-39 -39 -123 -43q-98 0 -170 55q-76 62 -76 151zM256 1272q0 -27 28 -46 q35 -26 86 -26t85 26q28 19 28 45v44q-33 15 -105 15q-55 0 -91 -19q-31 -16 -31 -39z" />
<glyph unicode="&#xab;" horiz-adv-x="1290" d="M154 433v228l442 259v-267l-185 -107l185 -109v-270zM691 433v228l442 259v-267l-185 -107l185 -109v-270z" />
<glyph unicode="&#xac;" horiz-adv-x="1200" d="M87 650v236h972v-636l-242 -1v401h-730z" />
<glyph unicode="&#xad;" horiz-adv-x="966" d="M156 478v231h612v-231h-612z" />
<glyph unicode="&#xae;" horiz-adv-x="1761" d="M158 745q0 309 223 528q223 217 537 217q315 0 538 -217q223 -219 223 -528q0 -310 -223 -528q-222 -218 -538 -218q-314 0 -537 218t-223 528zM390 745q0 -214 153 -366q157 -151 375 -151q220 0 376 151q155 153 155 366q0 214 -155 366q-156 152 -376 152 q-218 0 -374 -152q-154 -152 -154 -366zM647 415v688h357q88 0 149 -60q58 -59 62 -148v-23q6 -132 -80 -184l7 -14l126 -256h-201l-129 256h-110v-259h-181zM828 845h182q23 3 23 27v23q0 11 -8 19q-9 9 -21 9h-176v-78z" />
<glyph unicode="&#xaf;" horiz-adv-x="916" d="M155 1175v233h587v-233h-587z" />
<glyph unicode="&#xb0;" horiz-adv-x="873" d="M136 1200q0 117 81 198q85 83 204 83q117 0 200 -83q85 -80 85 -198q0 -115 -85 -198q-83 -81 -200 -81t-203 81q-82 83 -82 198zM313 1201q0 -45 33 -76q31 -32 76 -32q44 0 76 32q31 31 31 76t-30 75q-33 33 -77 33q-45 0 -76 -33q-33 -30 -33 -75z" />
<glyph unicode="&#xb1;" horiz-adv-x="1270" d="M177 96v232h944v-232h-944zM177 712v232h354v346h237v-346h353v-232h-353v-348h-237v348h-354z" />
<glyph unicode="&#xb4;" horiz-adv-x="743" d="M123 1203l342 383l170 -148l-348 -384z" />
<glyph unicode="&#xb5;" horiz-adv-x="1189" d="M154 -277v1396h232v-692q0 -118 71 -164q54 -35 149 -35h12q111 0 171 66q53 57 53 140v685h232v-1111h-232l1 49q-106 -58 -225 -58h-12q-137 0 -235 48v-324h-217z" />
<glyph unicode="&#xb6;" horiz-adv-x="1306" d="M93 1079q0 187 130 299.5t331 112.5h647v-229h-168v-1263h-232v1263h-125v-1263h-234v674q-103 5 -226 116.5t-123 289.5z" />
<glyph unicode="&#xb7;" horiz-adv-x="485" d="M102 583v293h274v-293h-274z" />
<glyph unicode="&#xb8;" horiz-adv-x="781" d="M127 -127l287 376l189 -127l-291 -380z" />
<glyph unicode="&#xba;" horiz-adv-x="897" d="M169 1320q0 129 80 221q85 100 212 100q124 0 211 -100q80 -93 80 -221q0 -129 -80 -221q-87 -100 -211 -100q-127 0 -212 100q-80 92 -80 221zM395 1320q0 -45 25 -75q19 -22 41 -22q21 0 41 22q23 29 23 75q0 45 -24 74q-19 23 -40 23q-22 0 -41 -23q-25 -30 -25 -74z " />
<glyph unicode="&#xbb;" horiz-adv-x="1255" d="M154 167v270l185 109l-185 107v267l442 -259v-228zM691 167v270l185 109l-185 107v267l442 -259v-228z" />
<glyph unicode="&#xbf;" horiz-adv-x="1278" d="M168 464q0 182 126 317t215 140v184h229v-406h-115q-87 0 -155 -69q-68 -70 -68 -166q0 -98 70 -167q72 -69 171 -69q71 0 130 35q57 35 129 182l209 -99q-103 -206 -218 -278q-115 -69 -250 -69q-195 0 -332 136q-141 135 -141 329zM509 1214v276h229v-276h-229z" />
<glyph unicode="&#xc0;" horiz-adv-x="1657" d="M147 -1l527 1491h281l527 -1491h-245l-156 436h-536l-153 -436h-245zM584 1926l145 167l371 -318l-146 -165zM625 662h375l-183 601z" />
<glyph unicode="&#xc1;" horiz-adv-x="1640" d="M147 -1l527 1491h281l527 -1491h-245l-156 436h-536l-153 -436h-245zM583 1773l372 319l146 -167l-371 -316zM625 662h375l-183 601z" />
<glyph unicode="&#xc2;" horiz-adv-x="1657" d="M147 -1l527 1491h281l527 -1491h-245l-156 436h-536l-153 -436h-245zM463 1770l243 325h196l263 -318l-181 -142l-174 212l-159 -211zM625 662h375l-183 601z" />
<glyph unicode="&#xc3;" horiz-adv-x="1646" d="M147 -1l527 1491h281l527 -1491h-245l-156 436h-536l-153 -436h-245zM479 1686q15 171 62 221q69 91 184 91q96 0 195 -70q44 -38 66.5 -6t35.5 103l205 -45q-31 -156 -80 -217q-70 -90 -182 -90q-94 0 -192 79q-34 28 -57.5 8.5t-28.5 -99.5zM625 662h375l-183 601z" />
<glyph unicode="&#xc4;" horiz-adv-x="1643" d="M147 -1l527 1491h281l527 -1491h-245l-156 436h-536l-153 -436h-245zM496 1659v268h247v-268h-247zM625 662h375l-183 601zM900 1659v268h247v-268h-247z" />
<glyph unicode="&#xc5;" horiz-adv-x="1663" d="M137 -1l527 1490q-31 18 -59 44q-82 83 -82 198q0 117 81 198q85 83 204 83q117 0 200 -83q85 -80 85 -198q0 -115 -85 -198q-29 -28 -62 -46l526 -1488h-245l-156 436h-536l-153 -436h-245zM615 662h375l-183 601zM700 1732q0 -45 33 -76q31 -32 76 -32q44 0 76 32 q31 31 31 76t-30 75q-33 33 -77 33q-45 0 -76 -33q-33 -30 -33 -75z" />
<glyph unicode="&#xc6;" horiz-adv-x="2541" d="M144 2l1059 1486h1182v-227h-896v-382h809v-229h-809v-421h896v-229h-1127v437h-520l-314 -438zM900 665h358l1 510z" />
<glyph unicode="&#xc7;" horiz-adv-x="1593" d="M148 745q0 309 217 528q218 217 525 217q287 0 570 -257l-156 -170q-217 200 -414 200q-211 0 -361 -151q-149 -152 -149 -367q0 -216 149 -367q150 -150 361 -150q193 0 410 194l156 -170q-270 -242 -497 -250l-224 -290l-190 127l134 173q-118 8 -314 206 q-217 217 -217 527z" />
<glyph unicode="&#xc8;" horiz-adv-x="1447" d="M151 -1v1493h1143v-228h-911v-389h821v-230h-821v-417h911v-229h-1143zM460 1931l145 167l391 -337l-146 -167z" />
<glyph unicode="&#xc9;" horiz-adv-x="1445" d="M151 -1v1493h1143v-228h-911v-389h821v-230h-821v-417h911v-229h-1143zM460 1761l390 337l146 -167l-391 -337z" />
<glyph unicode="&#xca;" horiz-adv-x="1445" d="M151 -1v1493h1143v-228h-911v-389h821v-230h-821v-417h911v-229h-1143zM403 1767l243 325h196l263 -318l-181 -142l-174 212l-159 -211z" />
<glyph unicode="&#xcb;" horiz-adv-x="1439" d="M151 -1v1493h1143v-228h-911v-389h821v-230h-821v-417h911v-229h-1143zM426 1659v268h247v-268h-247zM830 1659v268h247v-268h-247z" />
<glyph unicode="&#xcc;" horiz-adv-x="647" d="M62 1928l145 167l392 -337l-147 -166zM202 -1v1489h231v-1489h-231z" />
<glyph unicode="&#xcd;" horiz-adv-x="647" d="M62 1764l390 337l147 -166l-392 -337zM202 -1v1489h231v-1489h-231z" />
<glyph unicode="&#xce;" horiz-adv-x="854" d="M79 1767l243 325h196l263 -318l-181 -142l-174 212l-159 -211zM312 -1v1489h230v-1489h-230z" />
<glyph unicode="&#xcf;" horiz-adv-x="781" d="M61 1659v268h247v-268h-247zM270 -1v1489h232v-1489h-232zM465 1659v268h247v-268h-247z" />
<glyph unicode="&#xd0;" horiz-adv-x="1637" d="M145 647v229h207v612h508q394 0 571 -274q117 -184 117 -461q0 -350 -176 -549q-182 -205 -507 -205h-513v648h-207zM584 228h281q267 0 376 192q77 132 77 333q0 207 -81 334q-110 174 -377 174h-276v-385h208v-229h-208v-419z" />
<glyph unicode="&#xd1;" horiz-adv-x="1488" d="M161 -1v1491h310l628 -1138v1138h230v-1491h-306l-629 1140l-1 -1140h-232zM388 1666q15 171 62 221q69 91 184 91q96 0 195 -70q44 -38 66.5 -6t35.5 103l205 -45q-31 -156 -80 -217q-70 -90 -182 -90q-94 0 -192 79q-34 28 -57.5 8.5t-28.5 -99.5z" />
<glyph unicode="&#xd2;" horiz-adv-x="1853" d="M158 745q0 309 223 528q223 217 537 217q315 0 538 -217q223 -219 223 -528q0 -310 -223 -528q-222 -218 -538 -218q-314 0 -537 218t-223 528zM390 745q0 -214 153 -366q157 -151 375 -151q220 0 376 151q155 153 155 366q0 214 -155 366q-156 152 -376 152 q-218 0 -374 -152q-154 -152 -154 -366zM680 1930l145 167l393 -337l-147 -166z" />
<glyph unicode="&#xd3;" horiz-adv-x="1853" d="M158 745q0 309 223 528q223 217 537 217q315 0 538 -217q223 -219 223 -528q0 -310 -223 -528q-222 -218 -538 -218q-314 0 -537 218t-223 528zM390 745q0 -214 153 -366q157 -151 375 -151q220 0 376 151q155 153 155 366q0 214 -155 366q-156 152 -376 152 q-218 0 -374 -152q-154 -152 -154 -366zM663 1758l393 337l145 -167l-390 -336z" />
<glyph unicode="&#xd4;" horiz-adv-x="1856" d="M158 745q0 309 223 528q223 217 537 217q315 0 538 -217q223 -219 223 -528q0 -310 -223 -528q-222 -218 -538 -218q-314 0 -537 218t-223 528zM390 745q0 -214 153 -366q157 -151 375 -151q220 0 376 151q155 153 155 366q0 214 -155 366q-156 152 -376 152 q-218 0 -374 -152q-154 -152 -154 -366zM581 1767l243 325h196l263 -318l-181 -142l-174 212l-159 -211z" />
<glyph unicode="&#xd5;" horiz-adv-x="1856" d="M158 745q0 309 223 528q223 217 537 217q315 0 538 -217q223 -219 223 -528q0 -310 -223 -528q-222 -218 -538 -218q-314 0 -537 218t-223 528zM390 745q0 -214 153 -366q157 -151 375 -151q220 0 376 151q155 153 155 366q0 214 -155 366q-156 152 -376 152 q-218 0 -374 -152q-154 -152 -154 -366zM554 1666q15 171 62 221q69 91 184 91q96 0 195 -70q44 -38 66.5 -6t35.5 103l205 -45q-31 -156 -80 -217q-70 -90 -182 -90q-94 0 -192 79q-34 28 -57.5 8.5t-28.5 -99.5z" />
<glyph unicode="&#xd6;" horiz-adv-x="1859" d="M158 745q0 309 223 528q223 217 537 217q315 0 538 -217q223 -219 223 -528q0 -310 -223 -528q-222 -218 -538 -218q-314 0 -537 218t-223 528zM390 745q0 -214 153 -366q157 -151 375 -151q220 0 376 151q155 153 155 366q0 214 -155 366q-156 152 -376 152 q-218 0 -374 -152q-154 -152 -154 -366zM596 1659v268h247v-268h-247zM1000 1659v268h247v-268h-247z" />
<glyph unicode="&#xd7;" horiz-adv-x="1244" d="M195 489l253 246l-251 246l169 163l249 -247l251 245l166 -164l-250 -245l249 -246l-168 -163l-250 246l-249 -244z" />
<glyph unicode="&#xd8;" horiz-adv-x="1734" d="M124 745q0 308 223 527q223 217 536 217q234 0 350 -76l98 135l189 -127l-102 -140q63 -47 142 -198q83 -159 83 -338q0 -308 -222 -527q-223 -218 -538 -218q-233 0 -348 77l-100 -137l-185 134l99 134q-63 48 -144 201q-81 158 -81 336zM356 745q0 -123 56 -232 q55 -106 73 -119l612 835q-50 33 -214 33q-218 0 -373 -152q-154 -151 -154 -365zM671 263q51 -33 212 -33q220 0 375 150q155 152 155 365q0 123 -57 232q-56 106 -74 120z" />
<glyph unicode="&#xd9;" horiz-adv-x="1497" d="M163 511v979h232v-979q0 -115 53 -183q78 -100 275 -100h28q178 0 265 73q81 70 81 210v979h232v-979q0 -196 -104 -326q-150 -186 -474 -186h-28q-257 0 -408 133q-152 138 -152 379zM490 1929l147 166l394 -339l-151 -164z" />
<glyph unicode="&#xda;" horiz-adv-x="1497" d="M163 511v979h232v-979q0 -115 53 -183q78 -100 275 -100h28q178 0 265 73q81 70 81 210v979h232v-979q0 -196 -104 -326q-150 -186 -474 -186h-28q-257 0 -408 133q-152 138 -152 379zM490 1754l391 338l149 -166l-393 -337z" />
<glyph unicode="&#xdb;" horiz-adv-x="1500" d="M163 511v979h232v-979q0 -115 53 -183q78 -100 275 -100h28q178 0 265 73q81 70 81 210v979h232v-979q0 -196 -104 -326q-150 -186 -474 -186h-28q-257 0 -408 133q-152 138 -152 379zM400 1767l243 325h196l263 -318l-181 -142l-174 212l-159 -211z" />
<glyph unicode="&#xdc;" horiz-adv-x="1494" d="M163 511v979h232v-979q0 -115 53 -183q78 -100 275 -100h28q178 0 265 73q81 70 81 210v979h232v-979q0 -196 -104 -326q-150 -186 -474 -186h-28q-257 0 -408 133q-152 138 -152 379zM420 1659v268h247v-268h-247zM824 1659v268h247v-268h-247z" />
<glyph unicode="&#xdd;" horiz-adv-x="1528" d="M101 1490h283l396 -552l396 552h282l-563 -787v-704h-231v704zM494 1763l390 338l147 -166l-390 -337z" />
<glyph unicode="&#xde;" horiz-adv-x="1333" d="M158 -1v1489h232v-271h341q173 0 290 -84q172 -121 172 -387v-20q0 -212 -125 -333q-123 -122 -337 -122h-341v-272h-232zM390 500h339q97 0 154 38q76 52 76 186v21q0 142 -69 196q-56 43 -161 43h-339v-484z" />
<glyph unicode="&#xdf;" horiz-adv-x="1331" d="M183 -1v1065q0 52 15 115q31 125 113 207q106 104 276 104q240 0 350 -154q76 -107 76 -262q0 -142 -102 -286q-32 -45 -32 -53q0 9 79 -57q100 -84 140 -135q83 -99 83 -208q0 -131 -92 -217q-85 -80 -232 -106q-75 -12 -230 -2l2 233q130 -10 184 -1q81 14 115 45 q18 17 18 48q0 27 -34 67q-27 33 -106 97q-162 137 -162 236q0 81 74 185q58 84 58 154q0 86 -34 130q-41 55 -155 55q-72 0 -110 -39q-59 -57 -59 -156v-1065h-235z" />
<glyph unicode="&#xe0;" horiz-adv-x="1232" d="M137 393q0 175 154 278q135 92 351 92q134 0 239 -40q0 59 -49 103q-37 35 -98 50q-98 24 -209 -1q-86 -22 -159 -119l-191 112q122 179 296 226q161 43 319 4q149 -37 235 -141q87 -107 87 -256v-690h-231v62q-87 -74 -257 -74q-195 0 -335 107q-152 116 -152 287z M369 393q0 -60 64 -108q78 -57 191 -57q114 0 192 57q65 48 65 108v103q-79 38 -239 38q-124 0 -204 -41q-69 -37 -69 -100zM375 1553l147 167l391 -337l-147 -167z" />
<glyph unicode="&#xe1;" d="M137 393q0 175 154 278q135 92 351 92q134 0 239 -40q0 59 -49 103q-37 35 -98 50q-98 24 -209 -1q-86 -22 -159 -119l-191 112q122 179 296 226q161 43 319 4q149 -37 235 -141q87 -107 87 -256v-690h-231v62q-87 -74 -257 -74q-195 0 -335 107q-152 116 -152 287z M369 393q0 -60 64 -108q78 -57 191 -57q114 0 192 57q65 48 65 108v103q-79 38 -239 38q-124 0 -204 -41q-69 -37 -69 -100zM377 1350l344 385l164 -151l-344 -383z" />
<glyph unicode="&#xe2;" d="M137 393q0 175 154 278q135 92 351 92q134 0 239 -40q0 59 -49 103q-37 35 -98 50q-98 24 -209 -1q-86 -22 -159 -119l-191 112q122 179 296 226q161 43 319 4q149 -37 235 -141q87 -107 87 -256v-690h-231v62q-87 -74 -257 -74q-195 0 -335 107q-152 116 -152 287z M289 1339l243 325h196l263 -318l-181 -142l-174 212l-159 -211zM369 393q0 -60 64 -108q78 -57 191 -57q114 0 192 57q65 48 65 108v103q-79 38 -239 38q-124 0 -204 -41q-69 -37 -69 -100z" />
<glyph unicode="&#xe3;" d="M137 393q0 175 154 278q135 92 351 92q134 0 239 -40q0 59 -49 103q-37 35 -98 50q-98 24 -209 -1q-86 -22 -159 -119l-191 112q122 179 296 226q161 43 319 4q149 -37 235 -141q87 -107 87 -256v-690h-231v62q-87 -74 -257 -74q-195 0 -335 107q-152 116 -152 287z M277 1303q15 171 62 221q69 91 184 91q96 0 195 -70q44 -38 66.5 -6t35.5 103l205 -45q-31 -156 -80 -217q-70 -90 -182 -90q-94 0 -192 79q-34 28 -57.5 8.5t-28.5 -99.5zM369 393q0 -60 64 -108q78 -57 191 -57q114 0 192 57q65 48 65 108v103q-79 38 -239 38 q-124 0 -204 -41q-69 -37 -69 -100z" />
<glyph unicode="&#xe4;" d="M137 393q0 175 154 278q135 92 351 92q134 0 239 -40q0 59 -49 103q-37 35 -98 50q-98 24 -209 -1q-86 -22 -159 -119l-191 112q122 179 296 226q161 43 319 4q149 -37 235 -141q87 -107 87 -256v-690h-231v62q-87 -74 -257 -74q-195 0 -335 107q-152 116 -152 287z M311 1256v268h249v-268h-249zM369 393q0 -60 64 -108q78 -57 191 -57q114 0 192 57q65 48 65 108v103q-79 38 -239 38q-124 0 -204 -41q-69 -37 -69 -100zM716 1256v268h248v-268h-248z" />
<glyph unicode="&#xe5;" horiz-adv-x="1238" d="M137 393q0 175 154 278q135 92 351 92q134 0 239 -40q0 59 -49 103q-37 35 -98 50q-98 24 -209 -1q-86 -22 -159 -119l-191 112q122 179 296 226q161 43 319 4q149 -37 235 -141q87 -107 87 -256v-690h-231v62q-87 -74 -257 -74q-195 0 -335 107q-152 116 -152 287z M367 1482q0 117 81 198q85 83 204 83q117 0 200 -83q85 -80 85 -198q0 -115 -85 -198q-83 -81 -200 -81t-203 81q-82 83 -82 198zM369 393q0 -60 64 -108q78 -57 191 -57q114 0 192 57q65 48 65 108v103q-79 38 -239 38q-124 0 -204 -41q-69 -37 -69 -100zM544 1483 q0 -45 33 -76q31 -32 76 -32q44 0 76 32q31 31 31 76t-30 75q-33 33 -77 33q-45 0 -76 -33q-33 -30 -33 -75z" />
<glyph unicode="&#xe6;" horiz-adv-x="2098" d="M136 393q0 175 154 278q135 92 351 92q134 0 239 -40q0 59 -49 103q-37 35 -98 50q-98 24 -209 -1q-86 -22 -159 -119l-191 112q122 179 296 226q161 43 319 4q149 -37 235 -141q5 -6 9 -12l6 6q159 167 384 167q240 0 393 -158q151 -158 151 -401v-114h-829 q83 -201 305 -217q164 0 306 156l175 -148q-211 -237 -501 -237q-176 0 -312 102v-90h-231v62q-87 -74 -257 -74q-195 0 -335 107q-152 116 -152 287zM368 393q0 -60 64 -108q78 -57 191 -57q114 0 192 57q65 48 65 108v103q-79 38 -239 38q-124 0 -204 -41 q-69 -37 -69 -100zM1116 672h617q-68 211 -310 227q-228 -18 -307 -227z" />
<glyph unicode="&#xe7;" horiz-adv-x="1273" d="M139 559q0 232 175 395q174 163 418 163q171 0 399 -134l-121 -195q-171 101 -278 101q-151 0 -258 -99q-103 -97 -103 -231q0 -136 103 -232q107 -99 258 -99q108 0 281 103l118 -194q-205 -126 -318 -134l-231 -299l-188 131l136 177q-59 3 -216 149q-175 165 -175 398 z" />
<glyph unicode="&#xe8;" horiz-adv-x="1329" d="M105 559q0 230 159 392q159 167 384 167q240 0 393 -158q151 -158 151 -401v-114h-829q83 -201 305 -217q164 0 306 156l175 -148q-211 -237 -501 -237q-225 0 -384 166q-159 164 -159 394zM341 672h617q-68 211 -310 227q-228 -18 -307 -227zM380 1537l150 164l390 -335 l-147 -167z" />
<glyph unicode="&#xe9;" horiz-adv-x="1329" d="M105 559q0 230 159 392q159 167 384 167q240 0 393 -158q151 -158 151 -401v-114h-829q83 -201 305 -217q164 0 306 156l175 -148q-211 -237 -501 -237q-225 0 -384 166q-159 164 -159 394zM341 672h617q-68 211 -310 227q-228 -18 -307 -227zM384 1349l345 385l163 -151 l-344 -383z" />
<glyph unicode="&#xea;" horiz-adv-x="1327" d="M105 559q0 230 159 392q159 167 384 167q240 0 393 -158q151 -158 151 -401v-114h-829q83 -201 305 -217q164 0 306 156l175 -148q-211 -237 -501 -237q-225 0 -384 166q-159 164 -159 394zM289 1339l243 325h196l263 -318l-181 -142l-174 212l-159 -211zM341 672h617 q-68 211 -310 227q-228 -18 -307 -227z" />
<glyph unicode="&#xeb;" horiz-adv-x="1327" d="M105 559q0 230 159 392q159 167 384 167q240 0 393 -158q151 -158 151 -401v-114h-829q83 -201 305 -217q164 0 306 156l175 -148q-211 -237 -501 -237q-225 0 -384 166q-159 164 -159 394zM321 1256v268h249v-268h-249zM341 672h617q-68 211 -310 227 q-228 -18 -307 -227zM726 1256v268h248v-268h-248z" />
<glyph unicode="&#xec;" horiz-adv-x="766" d="M73 1544l147 165l391 -336l-147 -166zM208 -1v1119h234v-1119h-234z" />
<glyph unicode="&#xed;" horiz-adv-x="769" d="M52 1360l342 383l170 -148l-348 -384zM205 -1v1119h234v-1119h-234z" />
<glyph unicode="&#xee;" horiz-adv-x="945" d="M119 1349l243 325h196l263 -318l-181 -142l-174 212l-159 -211zM355 -1v1119h233v-1119h-233z" />
<glyph unicode="&#xef;" horiz-adv-x="777" d="M65 1256v268h249v-268h-249zM276 -1v1119h233v-1119h-233zM470 1256v268h248v-268h-248z" />
<glyph unicode="&#xf0;" horiz-adv-x="1414" d="M151 523q0 215 153 369q153 153 371 153q112 4 185 -33v3q-39 72 -124 151l-160 -89l-100 160l122 68q-59 65 -174 132l125 166q164 -98 241 -170l134 75l100 -161l-97 -54q92 -96 187 -295q98 -246 93 -435q-10 -257 -163 -411q-154 -153 -369 -153q-218 0 -371 153 q-153 154 -153 371zM352 522q0 -128 91 -218q93 -90 225 -90q129 0 222 90q74 64 86 139t2.5 118.5t-9.5 47.5q-27 93 -109 156q-86 63 -192 63q-132 0 -225 -89q-91 -91 -91 -217z" />
<glyph unicode="&#xf1;" horiz-adv-x="1244" d="M154 -1v1111l229 1l2 -87q86 95 225 95h32q219 0 341 -149q91 -108 91 -279v-692h-232v692q0 118 -71 164q-54 35 -149 35h-12q-111 0 -171 -65q-53 -58 -53 -141v-685h-232zM247 1303q15 171 62 221q69 91 184 91q96 0 195 -70q44 -38 66.5 -6t35.5 103l205 -45 q-31 -156 -80 -217q-70 -90 -182 -90q-94 0 -192 79q-34 28 -57.5 8.5t-28.5 -99.5z" />
<glyph unicode="&#xf2;" horiz-adv-x="1423" d="M124 558q0 231 167 394t402 163q236 0 401 -164q168 -162 168 -393q0 -232 -168 -396q-165 -163 -401 -163q-235 0 -402 163q-167 164 -167 396zM356 558q0 -136 99 -233t238 -97t239 97q99 97 99 233q0 135 -99 232q-100 97 -239 97t-238 -97t-99 -232zM411 1530 l148 166l391 -336l-148 -166z" />
<glyph unicode="&#xf3;" horiz-adv-x="1423" d="M124 558q0 231 167 394t402 163q236 0 401 -164q168 -162 168 -393q0 -232 -168 -396q-165 -163 -401 -163q-235 0 -402 163q-167 164 -167 396zM356 558q0 -136 99 -233t238 -97t239 97q99 97 99 233q0 135 -99 232q-100 97 -239 97t-238 -97t-99 -232zM439 1351 l344 384l169 -148l-345 -382z" />
<glyph unicode="&#xf4;" horiz-adv-x="1420" d="M124 558q0 231 167 394t402 163q236 0 401 -164q168 -162 168 -393q0 -232 -168 -396q-165 -163 -401 -163q-235 0 -402 163q-167 164 -167 396zM343 1339l243 325h196l263 -318l-181 -142l-174 212l-159 -211zM356 558q0 -136 99 -233t238 -97t239 97q99 97 99 233 q0 135 -99 232q-100 97 -239 97t-238 -97t-99 -232z" />
<glyph unicode="&#xf5;" horiz-adv-x="1423" d="M124 558q0 231 167 394t402 163q236 0 401 -164q168 -162 168 -393q0 -232 -168 -396q-165 -163 -401 -163q-235 0 -402 163q-167 164 -167 396zM297 1303q15 171 62 221q69 91 184 91q96 0 195 -70q44 -38 66.5 -6t35.5 103l205 -45q-31 -156 -80 -217q-70 -90 -182 -90 q-94 0 -192 79q-34 28 -57.5 8.5t-28.5 -99.5zM356 558q0 -136 99 -233t238 -97t239 97q99 97 99 233q0 135 -99 232q-100 97 -239 97t-238 -97t-99 -232z" />
<glyph unicode="&#xf6;" horiz-adv-x="1420" d="M124 558q0 231 167 394t402 163q236 0 401 -164q168 -162 168 -393q0 -232 -168 -396q-165 -163 -401 -163q-235 0 -402 163q-167 164 -167 396zM351 1256v268h249v-268h-249zM356 558q0 -136 99 -233t238 -97t239 97q99 97 99 233q0 135 -99 232q-100 97 -239 97 t-238 -97t-99 -232zM756 1256v268h248v-268h-248z" />
<glyph unicode="&#xf8;" horiz-adv-x="1388" d="M124 558q0 231 167 394t402 163q132 0 243 -52l100 137l186 -136l-102 -139q142 -154 142 -367q0 -232 -168 -396q-165 -163 -401 -163q-120 0 -223 43l-98 -134l-185 137l94 127q-157 161 -157 386zM356 558q0 -110 65 -195l374 509q-48 15 -102 15q-139 0 -238 -97 t-99 -232zM614 237q38 -9 79 -9q139 0 239 97q99 97 99 233q0 98 -52 176z" />
<glyph unicode="&#xf9;" horiz-adv-x="1195" d="M154 427v692h232v-692q0 -118 71 -164q54 -35 149 -35h12q111 0 171 66q53 57 53 140v685h232v-1111h-232v-1l1 50q-106 -58 -225 -58h-12q-240 0 -361 149q-91 108 -91 279zM326 1545l147 168l393 -339l-150 -164z" />
<glyph unicode="&#xfa;" horiz-adv-x="1195" d="M154 427v692h232v-692q0 -118 71 -164q54 -35 149 -35h12q111 0 171 66q53 57 53 140v685h232v-1111h-232v-1l1 50q-106 -58 -225 -58h-12q-240 0 -361 149q-91 108 -91 279zM326 1373l390 335l150 -164l-393 -339z" />
<glyph unicode="&#xfb;" horiz-adv-x="1195" d="M154 427v692h232v-692q0 -118 71 -164q54 -35 149 -35h12q111 0 171 66q53 57 53 140v685h232v-1111h-232v-1l1 50q-106 -58 -225 -58h-12q-240 0 -361 149q-91 108 -91 279zM259 1339l243 325h196l263 -318l-181 -142l-174 212l-159 -211z" />
<glyph unicode="&#xfc;" horiz-adv-x="1195" d="M154 427v692h232v-692q0 -118 71 -164q54 -35 149 -35h12q111 0 171 66q53 57 53 140v685h232v-1111h-232v-1l1 50q-106 -58 -225 -58h-12q-240 0 -361 149q-91 108 -91 279zM291 1256v268h249v-268h-249zM696 1256v268h248v-268h-248z" />
<glyph unicode="&#xfd;" horiz-adv-x="1420" d="M94 1115h262l391 -754l279 757l246 -1l-439 -1199q-73 -202 -233 -263q-62 -24 -131 -24q-100 0 -270 84l112 207q96 -52 121 -56q48 -10 81 3q63 25 100 128q20 53 26 70zM443 1380l391 335l148 -165l-392 -338z" />
<glyph unicode="&#xfe;" horiz-adv-x="1198" d="M110 -284v1637h232v-260q57 24 176 24q244 0 417 -163q176 -163 176 -395q0 -233 -176 -398q-174 -162 -417 -162q-121 0 -176 24v-307h-232zM342 271q83 -43 176 -43q151 0 259 99q102 96 102 232q0 134 -102 231q-108 99 -259 99q-93 0 -176 -44v-574z" />
<glyph unicode="&#xff;" horiz-adv-x="1420" d="M94 1115h262l391 -754l279 757l246 -1l-439 -1199q-73 -202 -233 -263q-62 -24 -131 -24q-100 0 -270 84l112 207q96 -52 121 -56q48 -10 81 3q63 25 100 128q20 53 26 70zM371 1256v268h249v-268h-249zM776 1256v268h248v-268h-248z" />
<glyph unicode="&#x2c6;" horiz-adv-x="937" d="M124 1190l243 325h196l263 -318l-181 -142l-174 212l-159 -211z" />
<glyph unicode="&#x2dc;" horiz-adv-x="976" d="M107 1177q15 171 62 221q69 91 184 91q96 0 195 -70q44 -38 66.5 -6t35.5 103l205 -45q-31 -156 -80 -217q-70 -90 -182 -90q-94 0 -192 79q-34 28 -57.5 8.5t-28.5 -99.5z" />
<glyph unicode="&#x2000;" horiz-adv-x="1050" />
<glyph unicode="&#x2001;" horiz-adv-x="2101" />
<glyph unicode="&#x2002;" horiz-adv-x="1050" />
<glyph unicode="&#x2003;" horiz-adv-x="2101" />
<glyph unicode="&#x2004;" horiz-adv-x="700" />
<glyph unicode="&#x2005;" horiz-adv-x="525" />
<glyph unicode="&#x2006;" horiz-adv-x="350" />
<glyph unicode="&#x2007;" horiz-adv-x="350" />
<glyph unicode="&#x2008;" horiz-adv-x="262" />
<glyph unicode="&#x2009;" horiz-adv-x="420" />
<glyph unicode="&#x200a;" horiz-adv-x="116" />
<glyph unicode="&#x2010;" horiz-adv-x="966" d="M156 478v231h612v-231h-612z" />
<glyph unicode="&#x2011;" horiz-adv-x="966" d="M156 478v231h612v-231h-612z" />
<glyph unicode="&#x2012;" horiz-adv-x="966" d="M156 478v231h612v-231h-612z" />
<glyph unicode="&#x2013;" horiz-adv-x="1241" d="M177 618v232h944v-232h-944z" />
<glyph unicode="&#x2014;" horiz-adv-x="1763" d="M177 421v232h1416v-232h-1416z" />
<glyph unicode="&#x2018;" horiz-adv-x="508" d="M112 1141v279q2 105 54 151t125 52h87v-153q-66 -18 -62 -82h63v-247h-154h-113z" />
<glyph unicode="&#x2019;" horiz-adv-x="503" d="M122 1356v247h154h113v-279q-2 -105 -54 -151t-125 -52h-87v153q66 18 62 82h-63z" />
<glyph unicode="&#x201a;" horiz-adv-x="487" d="M102 2v247h154h113v-279q-2 -105 -54 -151t-125 -52h-87v153q66 18 62 82h-63z" />
<glyph unicode="&#x201c;" horiz-adv-x="835" d="M82 1141v279q2 105 54 151t125 52h87v-153q-66 -18 -62 -82h63v-247h-154h-113zM478 1141v279q2 105 54 151t125 52h87v-153q-66 -18 -62 -82h63v-247h-154h-113z" />
<glyph unicode="&#x201d;" horiz-adv-x="829" d="M82 1376v247h154h113v-279q-2 -105 -54 -151t-125 -52h-87v153q66 18 62 82h-63zM488 1376v247h154h113v-279q-2 -105 -54 -151t-125 -52h-87v153q66 18 62 82h-63z" />
<glyph unicode="&#x201e;" horiz-adv-x="842" d="M82 8v247h154h113v-279q-2 -105 -54 -151t-125 -52h-87v153q66 18 62 82h-63zM478 8v247h154h113v-279q-2 -105 -54 -151t-125 -52h-87v153q66 18 62 82h-63z" />
<glyph unicode="&#x2022;" horiz-adv-x="932" d="M201 639q0 115 82.5 194t196.5 79t196 -79.5t82 -193.5t-82.5 -194t-196.5 -80q-115 0 -196.5 80t-81.5 194z" />
<glyph unicode="&#x2026;" horiz-adv-x="1399" d="M175 4v283h251v-283h-251zM579 3v284h250v-284h-250zM982 3v284h251v-284h-251z" />
<glyph unicode="&#x202f;" horiz-adv-x="420" />
<glyph unicode="&#x2039;" horiz-adv-x="774" d="M154 433v228l442 259v-267l-185 -107l185 -109v-270z" />
<glyph unicode="&#x203a;" horiz-adv-x="768" d="M154 167v270l185 109l-185 107v267l442 -259v-228z" />
<glyph unicode="&#x205f;" horiz-adv-x="525" />
<glyph unicode="&#x20ac;" horiz-adv-x="1557" d="M157 487l108 231h64l2 54h-174l108 230h97q33 192 197.5 340t409.5 148h3q186 -1 393 -128l-125 -197q-159 105 -325 96q-209 -37 -301 -259h539l-109 -230h-477l-5 -54h543l-112 -231h-409q109 -241 374 -257h1q113 0 302 96l111 -200q-244 -127 -413 -127h-1 q-254 0 -415.5 143t-203.5 345h-182z" />
<glyph unicode="&#x2122;" horiz-adv-x="1412" d="M97 1234v230h500v-230h-134v-380h-233v380h-133zM668 851v611h230l100 -131l100 131h230v-611h-229l1 270l-102 -134l-98 127v-263h-232z" />
<glyph unicode="&#x25fc;" horiz-adv-x="1115" d="M0 0v1115h1115v-1115h-1115z" />
</font>
</defs>
</svg>
